<!-- Generated by IcoMoon.io -->
<svg version="1.1" xmlns="http://www.w3.org/2000/svg" width="448" height="448" viewBox="0 0 448 448">
<g id="icomoon-ignore">
</g>
<path fill="white" d="M416 272v48c0 28.5-12.5 53.75-32 71.5v48.5c0 4.5-3.5 8-8 8h-16c-4.5 0-8-3.5-8-8v-29.5c-10 3.5-20.75 5.5-32 5.5h-192c-11.25 0-22-2-32-5.5v27.5c0 5.5-3.5 10-8 10h-16c-4.5 0-8-4.5-8-10v-46.5c-19.5-17.75-32-43-32-71.5v-48h384zM176 168c0 4.5-3.5 8-8 8s-8-3.5-8-8 3.5-8 8-8 8 3.5 8 8zM192 152c0 4.5-3.5 8-8 8s-8-3.5-8-8 3.5-8 8-8 8 3.5 8 8zM176 136c0 4.5-3.5 8-8 8s-8-3.5-8-8 3.5-8 8-8 8 3.5 8 8zM208 136c0 4.5-3.5 8-8 8s-8-3.5-8-8 3.5-8 8-8 8 3.5 8 8zM192 120c0 4.5-3.5 8-8 8s-8-3.5-8-8 3.5-8 8-8 8 3.5 8 8zM176 104c0 4.5-3.5 8-8 8s-8-3.5-8-8 3.5-8 8-8 8 3.5 8 8zM448 232v16c0 4.5-3.5 8-8 8h-432c-4.5 0-8-3.5-8-8v-16c0-4.5 3.5-8 8-8h24v-160c0-35.25 28.75-64 64-64 18 0 34.25 7.5 46 19.5 15.5-6.25 34-4 47.75 6.75l5.5-5.5c1.5-1.5 4-1.5 5.5 0l10.5 10.5c1.5 1.5 1.5 4 0 5.5l-78.5 78.5c-1.5 1.5-4 1.5-5.5 0l-10.5-10.5c-1.5-1.5-1.5-4 0-5.5l5.5-5.5c-12-15.25-13.5-36.25-4.25-53-5.75-5.5-13.5-8.75-22-8.75-17.75 0-32 14.25-32 32v160h376c4.5 0 8 3.5 8 8zM224 120c0 4.5-3.5 8-8 8s-8-3.5-8-8 3.5-8 8-8 8 3.5 8 8zM208 104c0 4.5-3.5 8-8 8s-8-3.5-8-8 3.5-8 8-8 8 3.5 8 8zM192 88c0 4.5-3.5 8-8 8s-8-3.5-8-8 3.5-8 8-8 8 3.5 8 8zM240 104c0 4.5-3.5 8-8 8s-8-3.5-8-8 3.5-8 8-8 8 3.5 8 8zM224 88c0 4.5-3.5 8-8 8s-8-3.5-8-8 3.5-8 8-8 8 3.5 8 8zM208 72c0 4.5-3.5 8-8 8s-8-3.5-8-8 3.5-8 8-8 8 3.5 8 8zM256 88c0 4.5-3.5 8-8 8s-8-3.5-8-8 3.5-8 8-8 8 3.5 8 8zM240 72c0 4.5-3.5 8-8 8s-8-3.5-8-8 3.5-8 8-8 8 3.5 8 8zM272 72c0 4.5-3.5 8-8 8s-8-3.5-8-8 3.5-8 8-8 8 3.5 8 8z"></path>
</svg>
