<!-- Generated by IcoMoon.io -->
<svg version="1.1" xmlns="http://www.w3.org/2000/svg" width="480" height="448" viewBox="0 0 480 448">
<g id="icomoon-ignore">
</g>
<path fill="white" d="M358.25 62.25c3.25 3.25 3.25 8.25 0 11.5l-156.5 156.5c-3.25 3.25-8.25 3.25-11.5 0l-20.5-20.5c-3.25-3.25-3.25-8.25 0-11.5l11-11c-24.25-30.5-27.25-72.25-8.75-105.5-11.5-11-27-17.75-44-17.75-35.25 0-64 28.75-64 64v320h-64v-320c0-70.5 57.5-128 128-128 36 0 68.5 15 91.75 39 31.5-12.75 68-8 95.5 13.75l11-11c3.25-3.25 8.25-3.25 11.5 0zM336 128c8.75 0 16 7.25 16 16s-7.25 16-16 16-16-7.25-16-16 7.25-16 16-16zM400 160c-8.75 0-16-7.25-16-16s7.25-16 16-16 16 7.25 16 16-7.25 16-16 16zM464 128c8.75 0 16 7.25 16 16s-7.25 16-16 16-16-7.25-16-16 7.25-16 16-16zM304 160c8.75 0 16 7.25 16 16s-7.25 16-16 16-16-7.25-16-16 7.25-16 16-16zM352 176c0-8.75 7.25-16 16-16s16 7.25 16 16-7.25 16-16 16-16-7.25-16-16zM432 160c8.75 0 16 7.25 16 16s-7.25 16-16 16-16-7.25-16-16 7.25-16 16-16zM272 192c8.75 0 16 7.25 16 16s-7.25 16-16 16-16-7.25-16-16 7.25-16 16-16zM336 224c-8.75 0-16-7.25-16-16s7.25-16 16-16 16 7.25 16 16-7.25 16-16 16zM400 192c8.75 0 16 7.25 16 16s-7.25 16-16 16-16-7.25-16-16 7.25-16 16-16zM304 256c-8.75 0-16-7.25-16-16s7.25-16 16-16 16 7.25 16 16-7.25 16-16 16zM368 224c8.75 0 16 7.25 16 16s-7.25 16-16 16-16-7.25-16-16 7.25-16 16-16zM272 256c8.75 0 16 7.25 16 16s-7.25 16-16 16-16-7.25-16-16 7.25-16 16-16zM336 256c8.75 0 16 7.25 16 16s-7.25 16-16 16-16-7.25-16-16 7.25-16 16-16zM304 288c8.75 0 16 7.25 16 16s-7.25 16-16 16-16-7.25-16-16 7.25-16 16-16zM272 320c8.75 0 16 7.25 16 16s-7.25 16-16 16-16-7.25-16-16 7.25-16 16-16z"></path>
</svg>
